<svg xmlns="http://www.w3.org/2000/svg" xmlns:xlink="http://www.w3.org/1999/xlink" version="1.1" x="0px" y="0px" viewBox="0 0 100 100" style="enable-background:new 0 0 100 100;max-width:100%" xml:space="preserve" height="100%">
    <g style="" fill="#7bb57c">
        <path d="M83.3,59.3c0.7-0.1,1.2-0.6,1.3-1.2l5.2-26.9c0.1-0.4,0-0.9-0.3-1.2c-0.3-0.3-0.7-0.5-1.2-0.5H39.2l-1.9-6.3   c-0.2-0.6-0.8-1.1-1.4-1.1H25.8c-0.8,0-1.5,0.7-1.5,1.5s0.7,1.5,1.5,1.5h9l1.9,6.2c0,0,0,0,0,0.1l8.8,28.3l0.5,1.6l-4.2,7.5   c-0.3,0.5-0.3,1,0,1.5c0.3,0.5,0.8,0.7,1.3,0.7h2.2c-0.6,1-1,2.1-1,3.4c0,3.5,2.9,6.4,6.4,6.4c3.5,0,6.4-2.9,6.4-6.4   c0-1.2-0.4-2.4-1-3.4h19.3c-0.6,1-1,2.1-1,3.4c0,3.5,2.9,6.4,6.4,6.4c3.5,0,6.4-2.9,6.4-6.4s-2.9-6.4-6.4-6.4H45.6l2.8-5.1   L83.3,59.3z M54.1,74.3c0,1.9-1.5,3.4-3.4,3.4s-3.4-1.5-3.4-3.4c0-1.9,1.5-3.4,3.4-3.4S54.1,72.4,54.1,74.3z M84.2,74.3   c0,1.9-1.5,3.4-3.4,3.4s-3.4-1.5-3.4-3.4c0-1.9,1.5-3.4,3.4-3.4S84.2,72.4,84.2,74.3z M86.5,32.4l-4.6,24l-33.2,3.3l0-0.1   l-8.4-27.3H86.5z" style="" fill="#7bb57c"></path>
        <path d="M11.7,32.4h17.7c0.8,0,1.5-0.7,1.5-1.5s-0.7-1.5-1.5-1.5H11.7c-0.8,0-1.5,0.7-1.5,1.5S10.8,32.4,11.7,32.4z" style="" fill="#7bb57c"></path>
        <path d="M19,41.4c0,0.8,0.7,1.5,1.5,1.5h10.2c0.8,0,1.5-0.7,1.5-1.5c0-0.8-0.7-1.5-1.5-1.5H20.5C19.7,39.9,19,40.6,19,41.4z" style="" fill="#7bb57c"></path>
        <path d="M32.9,49.5H11.7c-0.8,0-1.5,0.7-1.5,1.5c0,0.8,0.7,1.5,1.5,1.5h21.2c0.8,0,1.5-0.7,1.5-1.5C34.4,50.1,33.7,49.5,32.9,49.5z   " style="" fill="#7bb57c"></path>
        <path d="M32.9,57.4H22.3c-0.8,0-1.5,0.7-1.5,1.5c0,0.8,0.7,1.5,1.5,1.5h10.6c0.8,0,1.5-0.7,1.5-1.5C34.4,58,33.7,57.4,32.9,57.4z" style="" fill="#7bb57c"></path>
    </g>
</svg>