<svg xmlns="http://www.w3.org/2000/svg" xmlns:xlink="http://www.w3.org/1999/xlink" version="1.1" x="0px" y="0px" viewBox="0 0 64 64" enable-background="new 0 0 64 64" xml:space="preserve" style="max-width:100%" height="100%">
    <g style="" fill="#7bb57c">
        <g style="" fill="#7bb57c">
            <path d="M50,19c-6.065,0-11-4.935-11-11c0-0.552-0.447-1-1-1H26c-0.552,0-1,0.448-1,1c0,6.065-4.935,11-11,11    c-0.552,0-1,0.448-1,1v12c0,11.426,17.664,24.271,18.416,24.812C31.59,56.938,31.795,57,32,57s0.41-0.062,0.584-0.188    C33.336,56.271,51,43.426,51,32V20C51,19.448,50.553,19,50,19z M49,32c0,9.313-13.948,20.432-17,22.752    C28.947,52.432,15,41.319,15,32V20.962C21.373,20.475,26.475,15.373,26.962,9l10.076,0C37.525,15.373,42.627,20.475,49,20.962V32z    " style="" fill="#7bb57c"></path>
            <path d="M32,25h4c0.553,0,1-0.448,1-1s-0.447-1-1-1h-3v-3c0-0.552-0.448-1-1-1s-1,0.448-1,1v3.101c-2.279,0.465-4,2.484-4,4.899    c0,1.335,0.52,2.591,1.464,3.536S30.664,33,31.999,33c0,0,0,0,0.001,0c1.654,0,3,1.346,3,3s-1.346,3-3,3h-4c-0.552,0-1,0.447-1,1    s0.448,1,1,1h3v3c0,0.553,0.448,1,1,1s1-0.447,1-1v-3.102c2.279-0.464,4-2.484,4-4.898c0-2.757-2.243-5-5-5c0,0,0,0-0.001,0    c-0.801,0-1.554-0.312-2.12-0.878C29.312,29.554,29,28.801,29,28C29,26.345,30.346,25,32,25z" style="" fill="#7bb57c"></path>
        </g>
    </g>
</svg>