<svg xmlns="http://www.w3.org/2000/svg" xmlns:xlink="http://www.w3.org/1999/xlink" version="1.1" x="0px" y="0px" viewBox="0 0 90 90" enable-background="new 0 0 90 90" xml:space="preserve" style="max-width:100%" height="100%">
    <path d="M76.915,69.008h-63.83c-2.901,0-5.262-2.36-5.262-5.262V26.254c0-2.901,2.36-5.262,5.262-5.262h63.83  c2.901,0,5.262,2.36,5.262,5.262v37.492C82.177,66.648,79.816,69.008,76.915,69.008z M13.085,23.692  c-1.414,0-2.563,1.149-2.563,2.562v37.492c0,1.413,1.15,2.562,2.563,2.562h63.83c1.413,0,2.562-1.149,2.562-2.562V26.254  c0-1.413-1.149-2.562-2.562-2.562H13.085z" style="" fill="#7bb57c"></path>
    <g style="" fill="#7bb57c">
        <path d="M26.179,50.82h-9.98c-0.745,0-1.349-0.604-1.349-1.35s0.604-1.35,1.349-1.35h9.98c0.745,0,1.349,0.604,1.349,1.35   S26.924,50.82,26.179,50.82z" style="" fill="#7bb57c"></path>
    </g>
    <g style="" fill="#7bb57c">
        <path d="M42.053,50.82h-9.98c-0.745,0-1.349-0.604-1.349-1.35s0.604-1.35,1.349-1.35h9.98c0.745,0,1.349,0.604,1.349,1.35   S42.798,50.82,42.053,50.82z" style="" fill="#7bb57c"></path>
    </g>
    <g style="" fill="#7bb57c">
        <path d="M57.928,50.82h-9.98c-0.745,0-1.35-0.604-1.35-1.35s0.604-1.35,1.35-1.35h9.98c0.745,0,1.35,0.604,1.35,1.35   S58.673,50.82,57.928,50.82z" style="" fill="#7bb57c"></path>
    </g>
    <g style="" fill="#7bb57c">
        <path d="M73.802,50.82h-9.98c-0.745,0-1.35-0.604-1.35-1.35s0.604-1.35,1.35-1.35h9.98c0.745,0,1.35,0.604,1.35,1.35   S74.547,50.82,73.802,50.82z" style="" fill="#7bb57c"></path>
    </g>
    <path d="M42.053,59.477H16.199c-0.745,0-1.349-0.604-1.349-1.35s0.604-1.35,1.349-1.35h25.854c0.745,0,1.349,0.604,1.349,1.35  S42.798,59.477,42.053,59.477z" style="" fill="#7bb57c"></path>
    <path d="M26.502,38.575h-8.108c-1.823,0-3.305-1.483-3.305-3.306v-4.272c0-1.822,1.482-3.306,3.305-3.306h8.108  c1.823,0,3.305,1.483,3.305,3.306v4.272C29.807,37.092,28.325,38.575,26.502,38.575z M18.394,30.391  c-0.334,0-0.607,0.271-0.607,0.606v4.272c0,0.335,0.272,0.606,0.607,0.606h8.108c0.334,0,0.607-0.271,0.607-0.606v-4.272  c0-0.335-0.272-0.606-0.607-0.606H18.394z" style="" fill="#7bb57c"></path>
</svg>